<?xml version="1.0" encoding="UTF-8"?>
<!DOCTYPE svg PUBLIC "-//W3C//DTD SVG 1.1//EN" "http://www.w3.org/Graphics/SVG/1.1/DTD/svg11.dtd">
<svg xmlns="http://www.w3.org/2000/svg" version="1.1" width="500px" height="500px" style="shape-rendering:geometricPrecision; text-rendering:geometricPrecision; image-rendering:optimizeQuality; fill-rule:evenodd; clip-rule:evenodd" xmlns:xlink="http://www.w3.org/1999/xlink">
<g><path style="opacity:0.961" fill="#f27026" d="M 59.5,94.5 C 100.5,94.5 141.5,94.5 182.5,94.5C 182.5,180.5 182.5,266.5 182.5,352.5C 141.5,352.5 100.5,352.5 59.5,352.5C 59.5,266.5 59.5,180.5 59.5,94.5 Z M 78.5,103.5 C 95.7649,103.257 101.598,111.257 96,127.5C 87.0453,136.712 78.3786,136.379 70,126.5C 65.6641,116.174 68.4974,108.507 78.5,103.5 Z M 115.5,103.5 C 127.254,101.929 134.254,106.929 136.5,118.5C 135.496,128.17 130.163,133.504 120.5,134.5C 108.196,131.372 103.696,123.705 107,111.5C 109.157,108.024 111.99,105.357 115.5,103.5 Z M 153.5,103.5 C 165.234,101.904 172.234,106.904 174.5,118.5C 170.775,132.363 162.442,136.53 149.5,131C 142.989,124.749 141.823,117.582 146,109.5C 148.114,106.879 150.614,104.879 153.5,103.5 Z M 78.5,145.5 C 92.9624,144.462 99.4624,151.129 98,165.5C 93.6874,174.241 86.8541,177.408 77.5,175C 68.1948,169.751 65.6948,162.251 70,152.5C 72.4412,149.546 75.2745,147.213 78.5,145.5 Z M 115.5,145.5 C 127.27,143.948 134.27,148.948 136.5,160.5C 133.194,174.82 124.861,178.986 111.5,173C 102.566,162.302 103.899,153.136 115.5,145.5 Z M 153.5,145.5 C 165.234,143.904 172.234,148.904 174.5,160.5C 170.788,174.357 162.455,178.523 149.5,173C 142.989,166.749 141.823,159.582 146,151.5C 148.114,148.879 150.614,146.879 153.5,145.5 Z M 78.5,187.5 C 92.9624,186.462 99.4624,193.129 98,207.5C 91.7281,218.705 83.2281,220.872 72.5,214C 64.9584,203 66.9584,194.167 78.5,187.5 Z M 116.5,187.5 C 127.761,186.433 134.428,191.433 136.5,202.5C 135.505,212.162 130.172,217.495 120.5,218.5C 107.254,215.114 103.087,207.114 108,194.5C 110.439,191.549 113.272,189.216 116.5,187.5 Z M 153.5,187.5 C 165.234,185.904 172.234,190.904 174.5,202.5C 171.955,214.911 164.622,219.744 152.5,217C 143.229,211.176 141.062,203.343 146,193.5C 148.114,190.879 150.614,188.879 153.5,187.5 Z M 78.5,229.5 C 92.9837,228.483 99.4837,235.15 98,249.5C 91.8168,260.837 83.3168,263.004 72.5,256C 64.9584,245 66.9584,236.167 78.5,229.5 Z M 116.5,229.5 C 127.761,228.433 134.428,233.433 136.5,244.5C 135.566,253.934 130.399,259.268 121,260.5C 107.189,257.54 102.855,249.54 108,236.5C 110.416,233.577 113.25,231.243 116.5,229.5 Z M 153.5,229.5 C 169.975,229.125 176.142,236.792 172,252.5C 166.296,260.293 159.13,262.127 150.5,258C 143.086,251.705 141.586,244.205 146,235.5C 148.114,232.879 150.614,230.879 153.5,229.5 Z M 78.5,271.5 C 92.6482,270.814 99.1482,277.481 98,291.5C 91.8788,303.097 83.3788,305.264 72.5,298C 64.9584,287 66.9584,278.167 78.5,271.5 Z M 116.5,271.5 C 127.761,270.433 134.428,275.433 136.5,286.5C 135.566,295.934 130.399,301.268 121,302.5C 107.214,299.593 102.88,291.593 108,278.5C 110.416,275.577 113.25,273.243 116.5,271.5 Z M 154.5,271.5 C 170.507,271.655 176.341,279.321 172,294.5C 161.33,305.832 151.997,304.832 144,291.5C 142.02,281.788 145.52,275.122 154.5,271.5 Z M 79.5,313.5 C 93.136,313.302 99.3027,319.968 98,333.5C 92.4256,344.469 84.2589,346.969 73.5,341C 66.7974,334.494 65.9641,327.327 71,319.5C 73.3218,316.605 76.1552,314.605 79.5,313.5 Z M 116.5,313.5 C 129.807,312.975 136.307,319.308 136,332.5C 131.205,343.317 123.371,346.484 112.5,342C 102.166,330.837 103.499,321.337 116.5,313.5 Z M 154.5,313.5 C 169.164,313.318 175.331,320.318 173,334.5C 164.531,346.91 155.198,347.577 145,336.5C 141.057,325.735 144.224,318.068 154.5,313.5 Z"/></g>
<g><path style="opacity:0.959" fill="#f27026" d="M 316.5,94.5 C 357.5,94.5 398.5,94.5 439.5,94.5C 439.5,180.5 439.5,266.5 439.5,352.5C 398.5,352.5 357.5,352.5 316.5,352.5C 316.5,266.5 316.5,180.5 316.5,94.5 Z M 339.5,102.5 C 353.986,105.472 358.486,113.806 353,127.5C 344.667,135.5 336.333,135.5 328,127.5C 322.583,114.998 326.416,106.665 339.5,102.5 Z M 377.5,102.5 C 387.156,103.49 392.49,108.823 393.5,118.5C 392.557,127.943 387.391,133.276 378,134.5C 362.979,130.101 359.312,121.101 367,107.5C 370.147,104.841 373.647,103.174 377.5,102.5 Z M 414.5,102.5 C 428.835,104.966 433.668,112.966 429,126.5C 422.705,133.914 415.205,135.414 406.5,131C 398.5,122.667 398.5,114.333 406.5,106C 409.158,104.522 411.825,103.355 414.5,102.5 Z M 335.5,145.5 C 352.765,145.257 358.598,153.257 353,169.5C 344.628,178.802 336.295,178.802 328,169.5C 322.757,159.151 325.257,151.151 335.5,145.5 Z M 373.5,145.5 C 387.44,144.274 393.94,150.607 393,164.5C 389.175,173.996 382.341,177.496 372.5,175C 363.206,169.785 360.706,162.285 365,152.5C 367.439,149.549 370.272,147.216 373.5,145.5 Z M 410.5,145.5 C 422.265,143.942 429.265,148.942 431.5,160.5C 428.081,174.876 419.748,179.043 406.5,173C 399.989,166.749 398.823,159.582 403,151.5C 405.114,148.879 407.614,146.879 410.5,145.5 Z M 335.5,187.5 C 352.765,187.257 358.598,195.257 353,211.5C 344.611,220.811 336.278,220.811 328,211.5C 322.757,201.151 325.257,193.151 335.5,187.5 Z M 373.5,187.5 C 387.128,186.629 393.628,192.962 393,206.5C 389.211,215.978 382.378,219.478 372.5,217C 363.206,211.785 360.706,204.285 365,194.5C 367.441,191.546 370.275,189.213 373.5,187.5 Z M 410.5,187.5 C 422.265,185.942 429.265,190.942 431.5,202.5C 428.1,216.867 419.767,221.034 406.5,215C 400.451,209.605 398.951,203.105 402,195.5C 404.074,191.923 406.907,189.256 410.5,187.5 Z M 335.5,229.5 C 352.765,229.257 358.598,237.257 353,253.5C 342.912,263.237 333.912,262.237 326,250.5C 323.726,241.048 326.893,234.048 335.5,229.5 Z M 373.5,229.5 C 387.158,228.66 393.658,234.993 393,248.5C 387.814,259.895 379.647,262.729 368.5,257C 359.445,245.883 361.112,236.717 373.5,229.5 Z M 411.5,229.5 C 422.756,228.427 429.423,233.427 431.5,244.5C 428.134,258.85 419.801,263.016 406.5,257C 398.869,249.315 398.536,241.315 405.5,233C 407.432,231.541 409.432,230.375 411.5,229.5 Z M 335.5,271.5 C 352.789,271.278 358.623,279.278 353,295.5C 344.026,305.01 335.36,304.677 327,294.5C 323.065,284.365 325.898,276.699 335.5,271.5 Z M 373.5,271.5 C 387.158,270.66 393.658,276.993 393,290.5C 390.706,297.787 385.706,301.787 378,302.5C 367.006,300.828 362.006,294.495 363,283.5C 364.936,278.068 368.436,274.068 373.5,271.5 Z M 411.5,271.5 C 422.721,270.384 429.388,275.384 431.5,286.5C 428.594,300.119 420.594,304.619 407.5,300C 398.975,292.275 398.308,283.941 405.5,275C 407.432,273.541 409.432,272.375 411.5,271.5 Z M 336.5,313.5 C 350.495,312.993 356.662,319.66 355,333.5C 348.879,345.097 340.379,347.264 329.5,340C 322.065,328.575 324.398,319.741 336.5,313.5 Z M 373.5,313.5 C 382.731,312.365 389.231,316.032 393,324.5C 394.134,337.362 388.301,343.862 375.5,344C 363.493,339.98 359.993,332.147 365,320.5C 367.441,317.546 370.275,315.213 373.5,313.5 Z M 411.5,313.5 C 424.298,312.801 430.798,318.801 431,331.5C 426.76,343.036 418.927,346.536 407.5,342C 400.56,336.564 398.726,329.731 402,321.5C 404.735,318.231 407.901,315.564 411.5,313.5 Z"/></g>
<g><path style="opacity:0.942" fill="#f27026" d="M 79.5,108.5 C 91.3413,107.841 95.508,113.174 92,124.5C 85.7078,130.048 79.7078,129.715 74,123.5C 71.9583,116.873 73.7916,111.873 79.5,108.5 Z"/></g>
<g><path style="opacity:0.952" fill="#f27026" d="M 116.5,108.5 C 126.141,107.036 130.974,111.036 131,120.5C 128.752,127.711 123.918,130.211 116.5,128C 108.555,121.503 108.555,115.003 116.5,108.5 Z"/></g>
<g><path style="opacity:0.941" fill="#f27126" d="M 154.5,108.5 C 164.988,107.487 169.488,112.154 168,122.5C 165.081,128.025 160.581,129.858 154.5,128C 148.975,125.081 147.142,120.581 149,114.5C 150.36,111.977 152.193,109.977 154.5,108.5 Z"/></g>
<g><path style="opacity:0.944" fill="#f27126" d="M 336.5,108.5 C 346.988,107.487 351.488,112.154 350,122.5C 347.081,128.025 342.581,129.858 336.5,128C 330.975,125.081 329.142,120.581 331,114.5C 332.36,111.977 334.193,109.977 336.5,108.5 Z"/></g>
<g><path style="opacity:0.956" fill="#f27026" d="M 373.5,108.5 C 382.125,106.634 387.125,109.967 388.5,118.5C 387.125,127.195 382.125,130.362 373.5,128C 365.581,121.506 365.581,115.006 373.5,108.5 Z"/></g>
<g><path style="opacity:0.953" fill="#f27026" d="M 411.5,108.5 C 422.54,107.704 427.04,112.704 425,123.5C 421.562,128.081 417.062,129.581 411.5,128C 405.975,125.081 404.142,120.581 406,114.5C 407.36,111.977 409.193,109.977 411.5,108.5 Z"/></g>
<g><path style="opacity:0.949" fill="#f27026" d="M 79.5,150.5 C 89.9685,149.468 94.4685,154.135 93,164.5C 89.7231,170.109 84.8897,171.942 78.5,170C 73.7255,166.345 72.2255,161.512 74,155.5C 75.7297,153.598 77.563,151.931 79.5,150.5 Z"/></g>
<g><path style="opacity:0.958" fill="#f27026" d="M 116.5,150.5 C 124.779,149.128 129.779,152.461 131.5,160.5C 130.104,169.204 125.104,172.37 116.5,170C 108.555,163.503 108.555,157.003 116.5,150.5 Z"/></g>
<g><path style="opacity:0.944" fill="#f17127" d="M 154.5,150.5 C 164.988,149.487 169.488,154.154 168,164.5C 165.081,170.025 160.581,171.858 154.5,170C 148.975,167.081 147.142,162.581 149,156.5C 150.36,153.977 152.193,151.977 154.5,150.5 Z"/></g>
<g><path style="opacity:0.945" fill="#f17026" d="M 336.5,150.5 C 346.988,149.487 351.488,154.154 350,164.5C 347.081,170.025 342.581,171.858 336.5,170C 330.975,167.081 329.142,162.581 331,156.5C 332.36,153.977 334.193,151.977 336.5,150.5 Z"/></g>
<g><path style="opacity:0.952" fill="#f27026" d="M 374.5,150.5 C 384.442,149.277 388.942,153.61 388,163.5C 385.27,170.053 380.437,172.22 373.5,170C 365.362,163.057 365.695,156.557 374.5,150.5 Z"/></g>
<g><path style="opacity:0.94" fill="#f27026" d="M 411.5,150.5 C 422.54,149.704 427.04,154.704 425,165.5C 421.702,170.22 417.202,171.72 411.5,170C 405.433,166.283 403.933,161.116 407,154.5C 408.397,152.93 409.897,151.596 411.5,150.5 Z"/></g>
<g><path style="opacity:0.944" fill="#f27026" d="M 187.5,155.5 C 228.833,155.5 270.167,155.5 311.5,155.5C 311.5,221.167 311.5,286.833 311.5,352.5C 299.833,352.5 288.167,352.5 276.5,352.5C 276.811,341.448 276.478,330.448 275.5,319.5C 257.936,318.176 240.436,318.176 223,319.5C 222.5,330.495 222.333,341.495 222.5,352.5C 210.833,352.5 199.167,352.5 187.5,352.5C 187.5,286.833 187.5,221.167 187.5,155.5 Z M 209.5,169.5 C 221.744,170.014 227.577,176.347 227,188.5C 222.873,199.146 215.373,202.646 204.5,199C 196.241,193.138 194.407,185.638 199,176.5C 201.998,173.262 205.498,170.929 209.5,169.5 Z M 247.5,169.5 C 262.663,171.825 267.496,180.158 262,194.5C 255.749,201.011 248.582,202.177 240.5,198C 234.401,192.257 232.901,185.423 236,177.5C 239.195,173.673 243.029,171.007 247.5,169.5 Z M 285.5,169.5 C 300.356,171.555 305.19,179.555 300,193.5C 291.469,202.809 282.802,202.809 274,193.5C 269.54,181.422 273.373,173.422 285.5,169.5 Z M 209.5,203.5 C 224.514,205.202 229.681,213.202 225,227.5C 217.275,236.025 208.941,236.692 200,229.5C 193.592,217.217 196.759,208.55 209.5,203.5 Z M 247.5,203.5 C 262.663,205.825 267.496,214.158 262,228.5C 255.749,235.011 248.582,236.177 240.5,232C 234.401,226.257 232.901,219.423 236,211.5C 238.961,207.34 242.795,204.673 247.5,203.5 Z M 284.5,203.5 C 300.05,204.951 305.217,212.951 300,227.5C 291.38,236.825 282.713,236.825 274,227.5C 269.597,215.977 273.097,207.977 284.5,203.5 Z M 209.5,237.5 C 224.514,239.202 229.681,247.202 225,261.5C 219.054,268.864 211.888,270.364 203.5,266C 196.116,260.128 194.616,252.961 199,244.5C 202.043,241.246 205.543,238.913 209.5,237.5 Z M 246.5,237.5 C 262.601,239.095 267.767,247.428 262,262.5C 255.738,268.93 248.571,270.097 240.5,266C 234.401,260.257 232.901,253.423 236,245.5C 238.855,241.789 242.355,239.123 246.5,237.5 Z M 284.5,237.5 C 300.026,238.896 305.193,246.896 300,261.5C 291.38,270.825 282.713,270.825 274,261.5C 269.597,249.977 273.097,241.977 284.5,237.5 Z M 208.5,271.5 C 223.139,271.962 228.972,279.296 226,293.5C 220.429,302.357 212.929,304.524 203.5,300C 196.136,294.054 194.636,286.888 199,278.5C 201.529,275.115 204.696,272.782 208.5,271.5 Z M 246.5,271.5 C 254.521,271.092 260.354,274.425 264,281.5C 266.173,295.99 260.007,302.823 245.5,302C 235.987,298.14 232.487,291.307 235,281.5C 237.607,276.634 241.441,273.301 246.5,271.5 Z M 284.5,271.5 C 300.021,272.883 305.188,280.883 300,295.5C 291.333,304.833 282.667,304.833 274,295.5C 269.597,283.977 273.097,275.977 284.5,271.5 Z M 197.5,318.5 C 202.762,318.195 207.928,318.529 213,319.5C 213.806,325.084 213.639,330.584 212.5,336C 195.757,340.094 190.757,334.261 197.5,318.5 Z M 286.5,318.5 C 291.511,318.334 296.511,318.501 301.5,319C 302,319.5 302.5,320 303,320.5C 303.667,325.167 303.667,329.833 303,334.5C 302.5,335 302,335.5 301.5,336C 296.249,336.804 291.082,336.637 286,335.5C 285.215,329.751 285.382,324.084 286.5,318.5 Z"/></g>
<g><path style="opacity:0.952" fill="#f27126" d="M 207.5,175.5 C 219.292,174.12 223.792,179.12 221,190.5C 216.261,196.082 210.761,196.915 204.5,193C 199.954,186.108 200.954,180.274 207.5,175.5 Z"/></g>
<g><path style="opacity:0.94" fill="#f27127" d="M 245.5,175.5 C 255.988,174.487 260.488,179.154 259,189.5C 256.081,195.025 251.581,196.858 245.5,195C 239.975,192.081 238.142,187.581 240,181.5C 241.36,178.977 243.193,176.977 245.5,175.5 Z"/></g>
<g><path style="opacity:0.962" fill="#f27026" d="M 282.5,175.5 C 296.292,174.778 300.292,180.611 294.5,193C 285.058,197.944 279.058,195.277 276.5,185C 277.147,180.849 279.147,177.683 282.5,175.5 Z"/></g>
<g><path style="opacity:0.952" fill="#f27026" d="M 79.5,192.5 C 89.9577,191.457 94.4577,196.124 93,206.5C 89.7231,212.109 84.8897,213.942 78.5,212C 73.7795,208.702 72.2795,204.202 74,198.5C 75.3597,195.977 77.193,193.977 79.5,192.5 Z"/></g>
<g><path style="opacity:0.942" fill="#f27026" d="M 117.5,192.5 C 129.577,192.729 133.41,198.395 129,209.5C 125.319,212.36 121.152,213.193 116.5,212C 110.141,207.701 108.975,202.201 113,195.5C 114.652,194.601 116.152,193.601 117.5,192.5 Z"/></g>
<g><path style="opacity:0.953" fill="#f27026" d="M 154.5,192.5 C 164.988,191.487 169.488,196.154 168,206.5C 165.185,212.169 160.685,214.002 154.5,212C 148.975,209.081 147.142,204.581 149,198.5C 150.36,195.977 152.193,193.977 154.5,192.5 Z"/></g>
<g><path style="opacity:0.936" fill="#f27026" d="M 336.5,192.5 C 346.988,191.487 351.488,196.154 350,206.5C 346.723,212.109 341.89,213.942 335.5,212C 328.606,205.024 328.939,198.524 336.5,192.5 Z"/></g>
<g><path style="opacity:0.949" fill="#f27026" d="M 374.5,192.5 C 386.824,192.489 390.657,198.156 386,209.5C 382.319,212.36 378.152,213.193 373.5,212C 365.362,205.057 365.695,198.557 374.5,192.5 Z"/></g>
<g><path style="opacity:0.943" fill="#f27126" d="M 411.5,192.5 C 422.486,191.653 426.986,196.653 425,207.5C 421.702,212.22 417.202,213.72 411.5,212C 405.433,208.283 403.933,203.116 407,196.5C 408.397,194.93 409.897,193.596 411.5,192.5 Z"/></g>
<g><path style="opacity:0.95" fill="#f27127" d="M 207.5,209.5 C 219.292,208.12 223.792,213.12 221,224.5C 216.261,230.082 210.761,230.915 204.5,227C 199.954,220.108 200.954,214.274 207.5,209.5 Z"/></g>
<g><path style="opacity:0.957" fill="#f27026" d="M 244.5,209.5 C 255.437,207.938 260.27,212.605 259,223.5C 256.259,228.419 252.092,230.252 246.5,229C 240.223,226.611 238.057,222.111 240,215.5C 241.332,213.34 242.832,211.34 244.5,209.5 Z"/></g>
<g><path style="opacity:0.948" fill="#f27126" d="M 282.5,209.5 C 296.292,208.778 300.292,214.611 294.5,227C 285.058,231.944 279.058,229.277 276.5,219C 277.147,214.849 279.147,211.683 282.5,209.5 Z"/></g>
<g><path style="opacity:0.954" fill="#f27026" d="M 79.5,234.5 C 89.9898,233.489 94.4898,238.155 93,248.5C 89.7231,254.109 84.8897,255.942 78.5,254C 76.3333,253.167 74.8333,251.667 74,249.5C 72.0867,242.97 73.92,237.97 79.5,234.5 Z"/></g>
<g><path style="opacity:0.949" fill="#f27026" d="M 117.5,234.5 C 129.577,234.729 133.41,240.395 129,251.5C 125.319,254.36 121.152,255.193 116.5,254C 110.141,249.701 108.975,244.201 113,237.5C 114.652,236.601 116.152,235.601 117.5,234.5 Z"/></g>
<g><path style="opacity:0.949" fill="#f27026" d="M 155.5,234.5 C 165.999,234.169 170.166,239.169 168,249.5C 164.345,254.275 159.512,255.775 153.5,254C 148.919,250.562 147.419,246.062 149,240.5C 150.436,237.558 152.603,235.558 155.5,234.5 Z"/></g>
<g><path style="opacity:0.95" fill="#f27026" d="M 336.5,234.5 C 347.01,233.508 351.51,238.175 350,248.5C 346.82,254.234 341.987,256.067 335.5,254C 330.78,250.702 329.28,246.202 331,240.5C 332.36,237.977 334.193,235.977 336.5,234.5 Z"/></g>
<g><path style="opacity:0.948" fill="#f27026" d="M 374.5,234.5 C 386.824,234.489 390.657,240.156 386,251.5C 382.319,254.36 378.152,255.193 373.5,254C 365.344,247.105 365.678,240.605 374.5,234.5 Z"/></g>
<g><path style="opacity:0.953" fill="#f27026" d="M 412.5,234.5 C 422.977,234.149 427.144,239.149 425,249.5C 421.702,254.22 417.202,255.72 411.5,254C 404.983,249.755 403.817,244.255 408,237.5C 409.409,236.219 410.909,235.219 412.5,234.5 Z"/></g>
<g><path style="opacity:0.94" fill="#f27026" d="M 211.5,242.5 C 220.568,244.3 223.735,249.633 221,258.5C 216.261,264.082 210.761,264.915 204.5,261C 199.284,251.802 201.617,245.635 211.5,242.5 Z"/></g>
<g><path style="opacity:0.952" fill="#f27026" d="M 248.5,242.5 C 258.396,244.286 261.563,249.953 258,259.5C 252.333,264.833 246.667,264.833 241,259.5C 237.095,250.754 239.595,245.087 248.5,242.5 Z"/></g>
<g><path style="opacity:0.959" fill="#f27026" d="M 286.5,242.5 C 297.212,245.128 299.879,251.295 294.5,261C 285.058,265.944 279.058,263.277 276.5,253C 277.369,246.967 280.703,243.467 286.5,242.5 Z"/></g>
<g><path style="opacity:0.947" fill="#f27127" d="M 80.5,276.5 C 91.4362,276.702 95.2695,282.035 92,292.5C 85.6614,299.009 79.6614,298.675 74,291.5C 71.8845,284.414 74.0512,279.414 80.5,276.5 Z"/></g>
<g><path style="opacity:0.951" fill="#f27126" d="M 117.5,276.5 C 129.577,276.729 133.41,282.395 129,293.5C 124.397,297.542 119.564,298.042 114.5,295C 108.521,287.709 109.521,281.542 117.5,276.5 Z"/></g>
<g><path style="opacity:0.945" fill="#f27026" d="M 155.5,276.5 C 165.999,276.169 170.166,281.169 168,291.5C 161.237,299.622 154.904,299.289 149,290.5C 147.17,283.832 149.337,279.165 155.5,276.5 Z"/></g>
<g><path style="opacity:0.941" fill="#f27026" d="M 337.5,276.5 C 347.503,276.002 351.67,280.668 350,290.5C 346.82,296.234 341.987,298.067 335.5,296C 330.78,292.702 329.28,288.202 331,282.5C 332.436,279.558 334.603,277.558 337.5,276.5 Z"/></g>
<g><path style="opacity:0.957" fill="#f27026" d="M 374.5,276.5 C 385.673,276.496 389.839,281.829 387,292.5C 383.257,296.259 378.757,297.426 373.5,296C 365.433,289.141 365.766,282.641 374.5,276.5 Z"/></g>
<g><path style="opacity:0.944" fill="#f27026" d="M 412.5,276.5 C 422.977,276.149 427.144,281.149 425,291.5C 424.167,293.667 422.667,295.167 420.5,296C 407.178,297.35 403.011,291.85 408,279.5C 409.652,278.601 411.152,277.601 412.5,276.5 Z"/></g>
<g><path style="opacity:0.951" fill="#f27026" d="M 210.5,276.5 C 220.282,277.733 223.782,283.066 221,292.5C 214.965,299.065 208.965,299.065 203,292.5C 200.058,284.458 202.558,279.124 210.5,276.5 Z"/></g>
<g><path style="opacity:0.954" fill="#f27026" d="M 248.5,276.5 C 258.675,278.187 261.842,283.854 258,293.5C 252.333,298.833 246.667,298.833 241,293.5C 237.095,284.754 239.595,279.087 248.5,276.5 Z"/></g>
<g><path style="opacity:0.946" fill="#f27026" d="M 285.5,276.5 C 295.672,277.499 299.172,282.832 296,292.5C 290.035,299.065 284.035,299.065 278,292.5C 275.431,284.682 277.931,279.349 285.5,276.5 Z"/></g>
<g><path style="opacity:0.958" fill="#f27026" d="M 80.5,318.5 C 91.4362,318.702 95.2695,324.035 92,334.5C 85.58,341.357 79.58,341.023 74,333.5C 71.8845,326.414 74.0512,321.414 80.5,318.5 Z"/></g>
<g><path style="opacity:0.939" fill="#f27026" d="M 117.5,318.5 C 129.601,318.748 133.434,324.415 129,335.5C 124.534,339.883 119.701,340.383 114.5,337C 108.521,329.709 109.521,323.542 117.5,318.5 Z"/></g>
<g><path style="opacity:0.956" fill="#f27026" d="M 155.5,318.5 C 168.403,319.472 171.736,325.638 165.5,337C 158.519,340.714 153.019,339.214 149,332.5C 147.17,325.832 149.337,321.165 155.5,318.5 Z"/></g>
<g><path style="opacity:0.943" fill="#f27026" d="M 337.5,318.5 C 348.938,318.432 352.771,323.765 349,334.5C 342.704,341.041 336.704,340.708 331,333.5C 328.885,326.414 331.051,321.414 337.5,318.5 Z"/></g>
<g><path style="opacity:0.954" fill="#f27026" d="M 374.5,318.5 C 385.654,318.479 389.82,323.813 387,334.5C 382.451,339.58 377.285,340.414 371.5,337C 365.722,329.725 366.722,323.558 374.5,318.5 Z"/></g>
<g><path style="opacity:0.945" fill="#f27127" d="M 412.5,318.5 C 424.264,318.679 428.097,324.346 424,335.5C 416.933,341.068 410.933,340.068 406,332.5C 404.709,326.087 406.876,321.42 412.5,318.5 Z"/></g>
<g><path style="opacity:0.847" fill="#f27127" d="M 201.5,323.5 C 203.833,323.5 206.167,323.5 208.5,323.5C 208.5,326.167 208.5,328.833 208.5,331.5C 206.167,331.5 203.833,331.5 201.5,331.5C 201.5,328.833 201.5,326.167 201.5,323.5 Z"/></g>
<g><path style="opacity:0.961" fill="#f27027" d="M 227.5,323.5 C 242.167,323.5 256.833,323.5 271.5,323.5C 271.5,333.167 271.5,342.833 271.5,352.5C 256.833,352.5 242.167,352.5 227.5,352.5C 227.5,342.833 227.5,333.167 227.5,323.5 Z"/></g>
<g><path style="opacity:0.86" fill="#f27127" d="M 290.5,323.5 C 292.833,323.5 295.167,323.5 297.5,323.5C 297.5,326.167 297.5,328.833 297.5,331.5C 295.167,331.5 292.833,331.5 290.5,331.5C 290.5,328.833 290.5,326.167 290.5,323.5 Z"/></g>
<g><path style="opacity:0.928" fill="#f17127" d="M 42.5,357.5 C 180.5,357.5 318.5,357.5 456.5,357.5C 456.5,364.5 456.5,371.5 456.5,378.5C 318.5,378.5 180.5,378.5 42.5,378.5C 42.5,371.5 42.5,364.5 42.5,357.5 Z"/></g>
<g><path style="opacity:0.978" fill="#f27126" d="M 23.5,383.5 C 173.833,383.5 324.167,383.5 474.5,383.5C 474.5,390.167 474.5,396.833 474.5,403.5C 324.167,403.5 173.833,403.5 23.5,403.5C 23.5,396.833 23.5,390.167 23.5,383.5 Z"/></g>
</svg>
